<svg id="logos" xmlns="http://www.w3.org/2000/svg" viewBox="0 0 400 117"><defs><style>.cls-1{fill:#fff;}.cls-2{fill:#d62f3d;}</style></defs><title>Logos_Bol&amp;amp;Boosch</title><g id="B_B_Full_RedWhite" data-name="B&amp;B_Full_RedWhite"><g id="wordmark"><path class="cls-1" d="M111.73,57.87c4-.94,5.9-4,5.9-7.88,0-5.28-3.13-9.77-11.07-9.77H95V77.3h12.12c7.94,0,11.23-4.55,11.23-10.39C118.31,62,116,58.76,111.73,57.87ZM101.08,44.66h4.49c4.28,0,5.69,2.5,5.69,5.69s-1.2,5.85-5.59,5.85h-4.59Zm5,28.15h-5V60.38h5.06c4.13,0,5.8,2.51,5.8,6.27C111.94,70.2,110.42,72.81,106,72.81Z"/><path class="cls-1" d="M135,39.28c-8.93,0-14,5.85-14,19.43s5.07,19.48,14,19.48S149,72.29,149,58.71,143.91,39.28,135,39.28Zm0,33.9c-4.86,0-7.63-3.87-7.63-14.47s2.77-14.47,7.63-14.47,7.52,3.92,7.52,14.47S139.88,73.18,135,73.18Z"/><path class="cls-1" d="M159.53,72V40.22h-6.12V77.3h19V72Z"/><path class="cls-1" d="M213.37,72.75a4.69,4.69,0,0,1-3.71-1.66,24.27,24.27,0,0,0,2.79-9.7c.09-.92.15-1.89.18-2.89h-4.9c-.06,1-.14,2-.24,2.89a24.17,24.17,0,0,1-1.22,5.47l-4.33-5.47-2.28-2.89-.49-.63,1.14-.83c3.6-2.56,5.7-5.49,5.7-9.66,0-5.34-3.35-8.57-8.94-8.57s-9,3.29-9,8.83c0,3.28,1.15,6,4.23,10-.43.27-.85.55-1.23.83a18.19,18.19,0,0,0-2.28,1.9,9.68,9.68,0,0,0-3.07,7.5c0,6.32,4.54,10.29,11.54,10.29a14,14,0,0,0,9.19-3.14,8.4,8.4,0,0,0,6,2.56,8.68,8.68,0,0,0,2.45-.31V72.6A5,5,0,0,1,213.37,72.75Zm-16.24-30c2.14,0,3.45,1.61,3.45,4.75,0,2.77-.89,5.22-3.19,6.74l-.68.46c-2.35-3.18-3.14-5.11-3.14-7.25C193.63,44.24,194.83,42.73,197.13,42.73Zm.78,30.76a5.94,5.94,0,0,1-6.27-6.11,7.09,7.09,0,0,1,2.72-6c.16-.15.33-.29.52-.44l.35.44,8.06,10.06A7.71,7.71,0,0,1,197.91,73.49Z"/><path class="cls-1" d="M247.21,57.87c4-.94,5.9-4,5.9-7.88,0-5.28-3.13-9.77-11.07-9.77H230.45V77.3h12.11c7.94,0,11.23-4.55,11.23-10.39C253.79,62,251.45,58.76,247.21,57.87ZM236.56,44.66h4.49c4.28,0,5.69,2.5,5.69,5.69s-1.2,5.85-5.59,5.85h-4.59Zm5,28.15h-5V60.38h5.06c4.13,0,5.8,2.51,5.8,6.27C247.42,70.2,245.91,72.81,241.52,72.81Z"/><path class="cls-1" d="M270.51,39.28c-8.93,0-14,5.85-14,19.43s5.07,19.48,14,19.48,13.94-5.9,13.94-19.48S279.39,39.28,270.51,39.28Zm0,33.9c-4.85,0-7.63-3.87-7.63-14.47s2.78-14.47,7.63-14.47S278,48.16,278,58.71,275.37,73.18,270.51,73.18Z"/><path class="cls-1" d="M301.43,39.28c-8.94,0-14,5.85-14,19.43s5.06,19.48,14,19.48,13.94-5.9,13.94-19.48S310.3,39.28,301.43,39.28Zm0,33.9c-4.86,0-7.63-3.87-7.63-14.47s2.77-14.47,7.63-14.47S309,48.16,309,58.71,306.28,73.18,301.43,73.18Z"/><path class="cls-1" d="M334.42,56.52l-5-1.68c-3.07-1-4.54-3-4.54-5.74,0-3,1.93-5,5.23-5a5.43,5.43,0,0,1,5.15,3,15,15,0,0,1,1,3.46h5.86a26,26,0,0,0-.57-3.46c-1.58-5.5-5.62-7.71-11.34-7.71-6.84,0-11.49,3.86-11.49,10.29a10.42,10.42,0,0,0,7.68,10.55l4.85,1.52c3.35,1.09,4.65,2.71,4.65,6.06s-2,5.48-5.17,5.48-5.06-1.21-6.24-3.8a19,19,0,0,1-.89-3.47h-6.11l0,.58a20.28,20.28,0,0,0,.56,2.89c1.6,5.81,5.8,8.76,12.55,8.76,7.36,0,11.59-4.39,11.59-10.87C342.25,61.74,339.74,58.29,334.42,56.52Z"/><path class="cls-1" d="M364.84,64.87a23.32,23.32,0,0,1-.56,3.47c-1,3.24-2.93,4.73-5.72,4.73-5.22,0-7.41-4-7.41-14.36s2.19-14.37,7.31-14.37c3.1,0,5.05,1.52,5.88,5.1a28,28,0,0,1,.39,3.47h6.21a31.57,31.57,0,0,0-.26-3.47c-1.08-6.74-5.3-10.11-12.12-10.11-9,0-13.73,5.64-13.73,19.38s4.23,19.48,13.68,19.48c6.46,0,10.71-3.42,12.09-9.85a33.43,33.43,0,0,0,.39-3.47Z"/><path class="cls-1" d="M393.89,40.22V55.94H381.25V40.22h-6.11V77.3h6.11V60.8h12.64V77.3H400V40.22Z"/></g><g id="Icon"><polygon class="cls-2" points="50.45 58.5 75.91 43.78 0 0.11 23.14 40.39 0.09 27.12 13.64 50.72 27.2 58.5 38.78 51.8 50.45 58.5"/><polygon class="cls-2" points="38.78 65.2 27.2 58.5 13.64 66.28 0.09 89.88 23.14 76.61 0 116.89 75.91 73.22 50.45 58.5 38.78 65.2"/></g></g></svg>